<svg width="201" height="33" viewBox="0 0 201 33" fill="none" xmlns="http://www.w3.org/2000/svg">
<g filter="url(#filter0_d_0_713)">
<path fill-rule="evenodd" clip-rule="evenodd" d="M73.0842 2.23057C72.8876 2.23433 72.7004 2.31506 72.5627 2.4554C72.425 2.59575 72.3479 2.7845 72.348 2.98108V17.247C72.348 17.4461 72.4271 17.637 72.5678 17.7778C72.7085 17.9185 72.8994 17.9975 73.0984 17.9975C73.2975 17.9975 73.4885 17.9185 73.6292 17.7778C73.77 17.637 73.849 17.4461 73.849 17.247V2.98108C73.8491 2.8814 73.8292 2.7827 73.7906 2.69077C73.7521 2.59883 73.6957 2.51549 73.6245 2.44562C73.5534 2.37575 73.469 2.32075 73.3765 2.28383C73.2839 2.24691 73.1848 2.2288 73.0852 2.23057H73.0842ZM84.4403 6.504C84.3423 6.50683 84.2458 6.52877 84.1562 6.5686L77.7153 9.44351C77.5836 9.50305 77.4719 9.59932 77.3934 9.72081C77.315 9.84229 77.2733 9.98382 77.2733 10.1284C77.2733 10.273 77.315 10.4145 77.3934 10.536C77.4719 10.6575 77.5836 10.7538 77.7153 10.8133L84.1562 13.6974C84.2531 13.741 84.3578 13.7637 84.4638 13.7641C84.6355 13.7636 84.8017 13.7042 84.9348 13.596C85.0681 13.4878 85.1601 13.3372 85.1956 13.1693C85.2313 13.0015 85.2083 12.8265 85.1306 12.6735C85.0528 12.5206 84.925 12.3989 84.7683 12.3287L79.8613 10.1294L84.7683 7.93838C84.9496 7.85681 85.0911 7.70689 85.1622 7.52136C85.2333 7.33581 85.2281 7.12969 85.1478 6.94795C85.0869 6.81235 84.9872 6.69783 84.8612 6.61883C84.7354 6.53982 84.5888 6.49986 84.4403 6.504ZM61.0363 11.7354C61.1409 11.6859 61.2555 11.6612 61.3712 11.6633V11.6643C61.5347 11.6675 61.6927 11.724 61.8211 11.8252C61.9496 11.9265 62.0414 12.0669 62.0827 12.2251C62.8683 15.2343 64.6298 17.8977 67.0913 19.7984C69.5529 21.699 72.5754 22.7294 75.6853 22.7282C75.8843 22.7282 76.0753 22.8073 76.216 22.9481C76.3568 23.0888 76.4358 23.2798 76.4358 23.4787C76.4358 23.6778 76.3568 23.8687 76.216 24.0095C76.0753 24.1502 75.8843 24.2292 75.6853 24.2292C68.6026 24.2292 62.4108 19.4473 60.6309 12.6014C60.602 12.4894 60.5993 12.3722 60.6232 12.259C60.647 12.1458 60.6967 12.0396 60.7684 11.9488C60.8401 11.8579 60.9318 11.7849 61.0363 11.7354Z" fill="white"/>
<path d="M196.492 5.70559C195.636 6.08495 194.717 6.34128 193.75 6.45713C194.747 5.8602 195.494 4.92069 195.85 3.81393C194.912 4.37065 193.886 4.76253 192.817 4.97251C192.097 4.20443 191.145 3.69532 190.106 3.52425C189.068 3.35318 188.002 3.5297 187.074 4.02642C186.146 4.52314 185.409 5.31225 184.975 6.27125C184.542 7.23025 184.437 8.30548 184.678 9.33C182.779 9.23465 180.921 8.74102 179.225 7.88116C177.529 7.02131 176.032 5.81444 174.833 4.33888C174.423 5.04633 174.187 5.86656 174.187 6.74011C174.187 7.52652 174.38 8.30086 174.751 8.99446C175.121 9.68806 175.658 10.2795 176.311 10.7162C175.553 10.6921 174.811 10.4871 174.148 10.1185V10.18C174.148 11.2829 174.53 12.3519 175.228 13.2056C175.926 14.0593 176.899 14.645 177.98 14.8635C177.276 15.0539 176.538 15.0819 175.822 14.9455C176.127 15.8946 176.722 16.7244 177.522 17.3191C178.322 17.9136 179.288 18.2431 180.285 18.2613C178.593 19.5896 176.503 20.3099 174.352 20.3067C173.971 20.3069 173.59 20.2846 173.212 20.2402C175.395 21.644 177.937 22.389 180.533 22.386C189.319 22.386 194.123 15.1085 194.123 8.79685C194.123 8.59179 194.118 8.38469 194.109 8.17962C195.043 7.50393 195.849 6.66721 196.49 5.70867L196.492 5.70559Z" fill="white"/>
<path fill-rule="evenodd" clip-rule="evenodd" d="M16.3035 1C9.50583 1 4 6.50583 4 13.3035C4 18.7478 7.52188 23.3463 12.4125 24.9765C13.0277 25.0842 13.2584 24.715 13.2584 24.3921C13.2584 24.0999 13.243 23.131 13.243 22.1005C10.1518 22.6696 9.35203 21.347 9.10596 20.6549C8.96755 20.3012 8.36775 19.2092 7.84485 18.917C7.41423 18.6863 6.79905 18.1173 7.82947 18.1019C8.79838 18.0865 9.49045 18.9939 9.72114 19.363C10.8285 21.2239 12.5971 20.701 13.3045 20.3781C13.4122 19.5783 13.7352 19.04 14.0889 18.7325C11.3514 18.4249 8.49079 17.3637 8.49079 12.6576C8.49079 11.3196 8.96755 10.2123 9.7519 9.35102C9.62886 9.04343 9.19824 7.78232 9.87493 6.09058C9.87493 6.09058 10.9054 5.76762 13.2584 7.3517C14.2427 7.07487 15.2885 6.93645 16.3343 6.93645C17.3801 6.93645 18.4259 7.07487 19.4102 7.3517C21.7632 5.75224 22.7936 6.09058 22.7936 6.09058C23.4703 7.78232 23.0397 9.04343 22.9167 9.35102C23.701 10.2123 24.1778 11.3042 24.1778 12.6576C24.1778 17.3791 21.3018 18.4249 18.5643 18.7325C19.0103 19.1169 19.3948 19.8552 19.3948 21.0086C19.3948 22.6542 19.3794 23.9768 19.3794 24.3921C19.3794 24.715 19.6101 25.0995 20.2253 24.9765C22.6676 24.1519 24.79 22.5821 26.2936 20.4882C27.7972 18.3941 28.6063 15.8814 28.6071 13.3035C28.6071 6.50583 23.1012 1 16.3035 1Z" fill="white"/>
<path fill-rule="evenodd" clip-rule="evenodd" d="M122.551 3.3042C121.412 3.3042 120.484 4.23017 120.484 5.36833C120.484 6.50724 121.412 7.4338 122.551 7.4338C123.689 7.4338 124.614 6.50724 124.614 5.36833C124.614 4.23017 123.689 3.3042 122.551 3.3042ZM120.767 8.99818V20.4515H124.329L124.331 8.99818H120.767ZM126.565 8.99713V20.4503L130.119 20.4517L130.121 14.7845C130.121 13.3298 130.374 11.8429 132.253 11.8429C134.104 11.8429 134.104 13.5976 134.104 14.879V20.4503L137.663 20.449V14.1689C137.663 11.3348 137.146 8.71224 133.393 8.71224C131.63 8.71224 130.477 9.70851 130.025 10.5618H129.975L129.975 8.99713H126.565ZM139.435 24H118.982C118.006 24 117.212 23.223 117.212 22.268V1.73068C117.212 0.776376 118.006 0 118.982 0H139.435C140.415 0 141.212 0.776376 141.212 1.73068V22.268C141.212 23.223 140.415 24 139.435 24Z" fill="white"/>
</g>
<defs>
<filter id="filter0_d_0_713" x="0" y="0" width="200.492" height="33" filterUnits="userSpaceOnUse" color-interpolation-filters="sRGB">
<feFlood flood-opacity="0" result="BackgroundImageFix"/>
<feColorMatrix in="SourceAlpha" type="matrix" values="0 0 0 0 0 0 0 0 0 0 0 0 0 0 0 0 0 0 127 0" result="hardAlpha"/>
<feOffset dy="4"/>
<feGaussianBlur stdDeviation="2"/>
<feComposite in2="hardAlpha" operator="out"/>
<feColorMatrix type="matrix" values="0 0 0 0 0 0 0 0 0 0 0 0 0 0 0 0 0 0 0.25 0"/>
<feBlend mode="normal" in2="BackgroundImageFix" result="effect1_dropShadow_0_713"/>
<feBlend mode="normal" in="SourceGraphic" in2="effect1_dropShadow_0_713" result="shape"/>
</filter>
</defs>
</svg>
